<svg xmlns="http://www.w3.org/2000/svg" width="254" height="48" viewBox="0 0 254 48">
    <g fill="none" fill-rule="evenodd">
        <rect width="48.128" height="48" fill="#55CE97" fill-rule="nonzero" rx="1.924"/>
        <g>
            <path fill="#414248" d="M33.231 16.457c-.203 3.907-4.263 4.77-6.736 4.364-1.811 2.334-5.322 5.024-9.8 5.024-4.476 0-7.987-2.69-9.798-5.024-2.473.406-6.533-.457-6.737-4.364-.203-3.907 4.122-4.516 4.122-4.516s-.153-.76 1.373-4.16c2.082-3.522 5.579-4.545 8.08-4.793C14.248 2.225 15.432.88 17.799 0c-.916.812-1.272 1.555-1.341 2.335.763-.305 2.273-1.472 3.952-.999-.867.112-1.773 1.074-2.196 1.581 2.385-.004 6.995.589 9.522 4.863 1.527 3.4 1.374 4.161 1.374 4.161s4.325.61 4.121 4.516" transform="translate(7.22 11.04)"/>
            <path fill="#FFF1B1" d="M16.696 24.678C27.635 23.409 28.499 12.6 23.768 10.47c-4.732-2.132-7.072 1.42-7.072 1.42s-2.34-3.552-7.072-1.42c-4.732 2.13-3.867 12.939 7.072 14.208" transform="translate(7.22 11.04)"/>
            <path fill="#FFF1B1" d="M5.757 18.614s-.61-1.522-.687-2.284c-.076-.76-1.78-1.623-3.027-1.192-1.247.431-.992 3.12 1.196 4.06 2.187.938 3.79 1.04 2.518-.584M27.635 18.614s.61-1.522.686-2.284c.077-.76 1.781-1.623 3.028-1.192 1.246.431.992 3.12-1.196 4.06-2.188.938-3.79 1.04-2.518-.584" transform="translate(7.22 11.04)"/>
            <path fill="#414248" d="M16.696 22.656c-3.74 0-5.01-2.282-5.062-2.379-.106-.198-.032-.444.166-.55.198-.105.444-.032.55.165.046.082 1.12 1.952 4.346 1.952 3.251 0 4.267-1.923 4.277-1.942.102-.2.347-.28.547-.179.2.102.28.346.179.546-.05.097-1.257 2.387-5.003 2.387M12.905 13.616s-.915 1.497.433 1.547c.56.61-.738 2.41-2.112 1.472-1.373-.939-.56-3.298.738-3.45 1.298-.153.941.43.941.43M22.249 13.616s-.916 1.497.432 1.547c.56.61-.737 2.41-2.111 1.472-1.374-.939-.56-3.298.738-3.45 1.297-.153.94.43.94.43M16.078 18.605c.258.376.354.758.215.852-.14.095-.461-.133-.719-.509-.257-.376-.353-.757-.214-.852.14-.095.46.133.718.509M17.419 18.605c-.258.376-.354.758-.215.852.14.095.461-.133.719-.509.257-.376.353-.757.214-.852-.14-.095-.46.133-.718.509" transform="translate(7.22 11.04)"/>
        </g>
        <g fill="#414248">
            <path d="M3.15 20.141c-1.001-.606-1.776-1.468-2.326-2.584C.274 16.442 0 15.16 0 13.711c0-1.468.28-2.764.839-3.89.56-1.125 1.344-2.001 2.355-2.628 1.01-.626 2.173-.94 3.489-.94.745 0 1.471.099 2.178.294.707.196 1.334.49 1.884.881.353.255.604.485.75.69.148.206.222.426.222.66 0 .216-.06.392-.177.53-.118.136-.265.205-.442.205-.196 0-.51-.166-.942-.5-.51-.371-1.02-.665-1.53-.88-.511-.215-1.13-.323-1.855-.323-1.53 0-2.728.524-3.592 1.57-.863 1.048-1.295 2.492-1.295 4.331 0 1.82.427 3.235 1.28 4.243.854 1.008 2.047 1.512 3.577 1.512.746 0 1.37-.107 1.87-.323.5-.215 1.045-.509 1.634-.88.176-.118.348-.226.515-.324.166-.098.299-.147.397-.147.196 0 .353.07.471.206.118.137.177.304.177.499 0 .235-.07.44-.206.617-.138.176-.403.401-.795.675-.53.392-1.173.7-1.928.925-.756.224-1.507.337-2.252.337-1.315 0-2.473-.303-3.474-.91M26.215 6.562c.166.167.25.387.25.66v12.86c0 .275-.084.495-.25.661-.167.166-.388.25-.663.25-.255 0-.46-.084-.618-.25-.157-.166-.235-.386-.235-.66V18.29c-.452.901-1.095 1.586-1.929 2.056-.834.47-1.78.704-2.84.704-1.688 0-2.959-.464-3.813-1.394-.853-.93-1.28-2.305-1.28-4.125v-8.31c0-.273.083-.493.25-.66.167-.166.387-.25.662-.25s.49.084.648.25c.157.167.236.387.236.66v8.192c0 1.39.28 2.413.839 3.068.559.656 1.437.984 2.634.984 1.374 0 2.478-.435 3.312-1.307.834-.87 1.251-2.03 1.251-3.479V7.223c0-.274.078-.494.236-.661.157-.166.372-.25.647-.25s.496.084.663.25M31.425 20.758c-.167-.157-.25-.382-.25-.676V.91c0-.293.083-.518.25-.675.167-.157.388-.235.663-.235.254 0 .466.078.633.235.166.157.25.382.25.675v19.172c0 .294-.084.52-.25.676-.167.156-.379.235-.633.235-.275 0-.496-.079-.663-.235M44.746 20.259c0 .234-.089.42-.265.557-.177.137-.462.196-.854.177l-.824-.06c-1.492-.097-2.596-.552-3.312-1.364-.717-.812-1.075-2.05-1.075-3.714v-7.81H36.18c-.235 0-.422-.064-.56-.191-.137-.127-.205-.298-.205-.514 0-.215.068-.391.206-.528.137-.137.324-.206.56-.206h2.236v-3.64c0-.294.079-.519.236-.676.157-.156.373-.235.648-.235.274 0 .495.079.662.235.166.157.25.382.25.675v3.641h3.562c.255 0 .451.069.589.206.137.137.206.313.206.528 0 .216-.069.387-.206.514-.138.127-.334.19-.589.19h-3.562v7.899c0 1.214.236 2.08.707 2.598.47.519 1.207.818 2.208.896l.794.058c.55.059.825.314.825.764M58.655 6.562c.167.167.25.387.25.66v12.86c0 .275-.083.495-.25.661-.167.166-.387.25-.662.25-.255 0-.461-.084-.618-.25-.158-.166-.236-.386-.236-.66V18.29c-.451.901-1.094 1.586-1.928 2.056-.834.47-1.781.704-2.84.704-1.689 0-2.96-.464-3.813-1.394-.854-.93-1.28-2.305-1.28-4.125v-8.31c0-.273.083-.493.25-.66.166-.166.387-.25.662-.25s.49.084.648.25c.156.167.235.387.235.66v8.192c0 1.39.28 2.413.839 3.068.56.656 1.437.984 2.635.984 1.373 0 2.477-.435 3.312-1.307.834-.87 1.25-2.03 1.25-3.479V7.223c0-.274.079-.494.236-.661.157-.166.373-.25.648-.25s.495.084.662.25M71.063 6.46c.157.117.236.313.236.586 0 .49-.294.764-.883.823l-.883.088c-1.394.137-2.429.636-3.106 1.497-.677.862-1.016 1.87-1.016 3.024v7.604c0 .294-.078.52-.235.676-.158.156-.373.235-.648.235s-.496-.079-.662-.235c-.167-.157-.25-.382-.25-.676V7.222c0-.293.083-.518.25-.675.166-.156.387-.235.662-.235.255 0 .461.079.618.235.157.157.236.372.236.646v1.909c.804-1.683 2.296-2.603 4.474-2.76l.413-.03c.372-.019.637.03.794.147M75.773 9.014c-.824.861-1.315 2.065-1.471 3.61h9.096c-.04-1.565-.432-2.774-1.177-3.625-.747-.852-1.796-1.277-3.15-1.277-1.374 0-2.473.43-3.298 1.292m8.935 8.999c.127.146.191.318.191.513 0 .431-.334.852-1 1.263-1.414.842-2.905 1.262-4.475 1.262-2.179 0-3.896-.655-5.152-1.967-1.256-1.31-1.884-3.112-1.884-5.402 0-1.468.28-2.765.839-3.89.56-1.126 1.344-1.997 2.355-2.613 1.01-.617 2.174-.925 3.489-.925 1.844 0 3.301.592 4.371 1.776 1.07 1.185 1.605 2.814 1.605 4.889 0 .352-.079.612-.236.778-.157.166-.412.25-.765.25h-9.803c.059 1.8.53 3.17 1.413 4.11.883.94 2.129 1.409 3.738 1.409.844 0 1.55-.112 2.12-.338.569-.225 1.178-.523 1.825-.895.432-.294.736-.44.913-.44.176 0 .328.073.456.22M109.053 7.53c.834.93 1.252 2.433 1.252 4.508v7.222c0 .568-.173 1.004-.516 1.307-.343.303-.79.455-1.34.455-.529 0-.966-.152-1.31-.455-.343-.303-.514-.739-.514-1.307v-7.222c0-1.077-.192-1.845-.574-2.305-.383-.46-.967-.69-1.752-.69-.962 0-1.727.328-2.296.984-.57.656-.854 1.551-.854 2.686v6.547c0 .568-.172 1.004-.515 1.307-.344.303-.78.455-1.31.455s-.972-.152-1.325-.455c-.353-.303-.53-.739-.53-1.307v-7.222c0-1.077-.191-1.845-.574-2.305-.382-.46-.967-.69-1.751-.69-.962 0-1.723.328-2.282.984-.56.656-.839 1.551-.839 2.686v6.547c0 .568-.176 1.004-.53 1.307-.353.303-.795.455-1.324.455-.53 0-.967-.152-1.31-.455-.344-.303-.516-.739-.516-1.307V7.898c0-.548.177-.969.53-1.263.353-.293.795-.44 1.325-.44.51 0 .927.142 1.251.426.324.284.486.69.486 1.218v.705c.451-.783 1.055-1.38 1.81-1.791.756-.411 1.624-.617 2.606-.617 2.158 0 3.6.9 4.327 2.701.432-.822 1.07-1.477 1.914-1.967.843-.489 1.795-.734 2.855-.734 1.57 0 2.772.465 3.606 1.395M123.316 17.058c.628-.782.942-1.937.942-3.464 0-1.507-.314-2.657-.942-3.45-.628-.793-1.53-1.19-2.708-1.19-1.178 0-2.086.397-2.723 1.19-.638.793-.957 1.943-.957 3.45 0 1.527.313 2.682.942 3.464.628.783 1.53 1.175 2.708 1.175 1.197 0 2.11-.392 2.738-1.175m-6.58 3.113c-1.109-.607-1.967-1.478-2.575-2.614-.61-1.134-.913-2.456-.913-3.963 0-1.507.304-2.823.913-3.95.608-1.124 1.466-1.99 2.575-2.598 1.109-.606 2.4-.91 3.872-.91 1.471 0 2.762.304 3.87.91 1.11.607 1.963 1.474 2.562 2.599.598 1.126.898 2.442.898 3.949 0 1.507-.3 2.829-.898 3.963-.599 1.136-1.453 2.007-2.561 2.614-1.11.606-2.4.91-3.871.91-1.472 0-2.763-.304-3.872-.91M143.187 7.604c.843.98 1.266 2.457 1.266 4.434v7.222c0 .549-.162.98-.486 1.292-.324.313-.77.47-1.34.47-.569 0-1.02-.157-1.354-.47-.334-.313-.5-.743-.5-1.292v-7.017c0-1.115-.211-1.927-.633-2.437-.422-.508-1.085-.763-1.987-.763-1.06 0-1.91.333-2.547.998-.638.666-.956 1.556-.956 2.672v6.547c0 .549-.167.98-.5 1.292-.335.313-.786.47-1.355.47-.57 0-1.016-.157-1.34-.47-.323-.313-.485-.743-.485-1.292V7.898c0-.509.166-.92.5-1.233.334-.313.785-.47 1.354-.47.51 0 .928.152 1.252.455.323.304.485.7.485 1.19v.792c.49-.802 1.148-1.419 1.973-1.85.824-.43 1.756-.646 2.796-.646 1.727 0 3.013.49 3.857 1.468M161.586 19.26c0 .45-.162.852-.486 1.204-.324.353-.702.529-1.133.529-.432 0-.835-.176-1.207-.529l-6.889-6.224v5.02c0 .568-.177.999-.53 1.292-.353.294-.795.44-1.325.44-.53 0-.967-.146-1.31-.44-.343-.293-.515-.724-.515-1.292V1.732c0-.567.172-.998.515-1.292.343-.293.78-.44 1.31-.44s.972.147 1.325.44c.353.294.53.725.53 1.292v11.04l6.3-6.02c.353-.351.755-.528 1.207-.528.451 0 .843.167 1.177.5.334.333.5.724.5 1.174 0 .45-.186.861-.559 1.233l-4.621 4.287 5.122 4.58c.392.372.589.793.589 1.262M167.665 9.66c-.599.626-.957 1.526-1.075 2.7h6.654c-.04-1.193-.334-2.099-.884-2.715-.55-.617-1.315-.925-2.296-.925-1 0-1.8.313-2.399.94m8.302 7.633c.206.255.309.598.309 1.028 0 .607-.364 1.116-1.09 1.527-.667.372-1.423.67-2.266.895-.844.225-1.649.338-2.414.338-2.316 0-4.151-.665-5.505-1.997-1.354-1.33-2.032-3.151-2.032-5.46 0-1.469.295-2.77.884-3.906.588-1.135 1.417-2.016 2.487-2.642 1.07-.626 2.282-.94 3.636-.94 1.295 0 2.424.284 3.385.852.962.568 1.708 1.37 2.238 2.407.53 1.038.794 2.261.794 3.67 0 .842-.373 1.263-1.118 1.263h-8.685c.118 1.35.5 2.344 1.149 2.98.647.636 1.59.954 2.826.954.628 0 1.182-.078 1.663-.235.48-.156 1.025-.371 1.634-.646.589-.313 1.02-.47 1.295-.47.334 0 .604.128.81.382M189.832 6.474c.265-.166.554-.25.869-.25.45 0 .858.152 1.221.455.363.304.545.68.545 1.13 0 .216-.06.441-.177.676l-8.037 16.794c-.333.665-.853.998-1.56.998-.451 0-.849-.142-1.192-.425-.344-.284-.515-.642-.515-1.072 0-.215.059-.46.176-.734l2.002-4.198-5.475-11.363c-.099-.195-.147-.42-.147-.675 0-.45.19-.832.574-1.145.382-.313.819-.47 1.31-.47.333 0 .637.084.912.25.275.166.49.425.648.778l4.121 9.072 4.092-9.043c.157-.352.368-.611.633-.778" transform="translate(60.75 11.2)"/>
        </g>
    </g>
</svg>
